<svg width="22" height="22" viewBox="0 0 22 22" fill="none" xmlns="http://www.w3.org/2000/svg">
<path d="M19.25 1.375H11C10.6354 1.37536 10.2859 1.52035 10.0281 1.77813C9.77035 2.03591 9.62536 2.38544 9.625 2.75V9.625H2.75C2.38544 9.62536 2.03591 9.77035 1.77813 10.0281C1.52035 10.2859 1.37536 10.6354 1.375 11V20.625H20.625V2.75C20.6246 2.38544 20.4797 2.03591 20.2219 1.77813C19.9641 1.52035 19.6146 1.37536 19.25 1.375ZM6.1875 19.25V14.4375H8.9375V19.25H6.1875ZM19.25 19.25H10.3125V13.75C10.3125 13.5677 10.2401 13.3928 10.1111 13.2639C9.9822 13.1349 9.80734 13.0625 9.625 13.0625H5.5C5.31766 13.0625 5.1428 13.1349 5.01386 13.2639C4.88493 13.3928 4.8125 13.5677 4.8125 13.75V19.25H2.75V11H11V2.75H19.25V19.25Z" fill="#FFDB48"/>
<path d="M12.375 5.5H13.75V6.875H12.375V5.5Z" fill="#FFDB48"/>
<path d="M16.5 5.5H17.875V6.875H16.5V5.5Z" fill="#FFDB48"/>
<path d="M12.375 9.625H13.75V11H12.375V9.625Z" fill="#FFDB48"/>
<path d="M16.5 9.625H17.875V11H16.5V9.625Z" fill="#FFDB48"/>
<path d="M12.375 13.75H13.75V15.125H12.375V13.75Z" fill="#FFDB48"/>
<path d="M16.5 13.75H17.875V15.125H16.5V13.75Z" fill="#FFDB48"/>
<path d="M1.375 6.875H4.8125V8.25H1.375V6.875Z" fill="#FFDB48"/>
<path d="M6.875 1.375H8.25V4.8125H6.875V1.375Z" fill="#FFDB48"/>
<path d="M2.75 3.72213L3.72213 2.75L6.1875 5.21469L5.21469 6.1875L2.75 3.72213Z" fill="#FFDB48"/>
</svg>
