<svg width="22" height="22" viewBox="0 0 22 22" fill="none" xmlns="http://www.w3.org/2000/svg">
    <path d="M5.5 4.125H13.75V5.5H5.5V4.125Z" fill="#FFDB48"/>
    <path d="M5.5 6.875H13.75V8.25H5.5V6.875Z" fill="#FFDB48"/>
    <path d="M5.5 9.625H9.625V11H5.5V9.625Z" fill="#FFDB48"/>
    <path d="M5.5 16.5H8.25V17.875H5.5V16.5Z" fill="#FFDB48"/>
    <path d="M20.4236 13.2639L18.3611 11.2014C18.2321 11.0725 18.0573 11.0001 17.875 11.0001C17.6927 11.0001 17.5179 11.0725 17.3889 11.2014L11 17.5904V20.625H14.0346L20.4236 14.2361C20.5524 14.1071 20.6249 13.9323 20.6249 13.75C20.6249 13.5677 20.5524 13.3929 20.4236 13.2639ZM13.4654 19.25H12.375V18.1596L15.8125 14.7221L16.9029 15.8125L13.4654 19.25ZM17.875 14.8404L16.7846 13.75L17.875 12.6596L18.9654 13.75L17.875 14.8404Z" fill="#FFDB48"/>
    <path d="M8.25 20.625H4.125C3.76044 20.6246 3.41091 20.4797 3.15313 20.2219C2.89535 19.9641 2.75036 19.6146 2.75 19.25V2.75C2.75036 2.38544 2.89535 2.03591 3.15313 1.77813C3.41091 1.52035 3.76044 1.37536 4.125 1.375H15.125C15.4896 1.37536 15.8391 1.52035 16.0969 1.77813C16.3547 2.03591 16.4996 2.38544 16.5 2.75V9.625H15.125V2.75H4.125V19.25H8.25V20.625Z" fill="#FFDB48"/>
</svg>
