<svg width="22" height="22" viewBox="0 0 22 22" xmlns="http://www.w3.org/2000/svg">
    <path d="M16.4869 16.7977C16.9061 17.0502 17.3857 17.1848 17.875 17.1875C18.6041 17.1866 19.303 16.8966 19.8185 16.381C20.3341 15.8655 20.6241 15.1666 20.625 14.4375C20.6216 14.1996 20.587 13.9631 20.5219 13.7342L18.8471 15.4096C18.7203 15.541 18.5686 15.6457 18.4008 15.7178C18.2331 15.7898 18.0526 15.8278 17.8701 15.8293C17.6875 15.8309 17.5064 15.7961 17.3374 15.727C17.1685 15.6579 17.0149 15.5558 16.8858 15.4267C16.7567 15.2976 16.6546 15.144 16.5855 14.9751C16.5164 14.8061 16.4816 14.625 16.4832 14.4424C16.4847 14.2599 16.5227 14.0794 16.5947 13.9117C16.6668 13.7439 16.7715 13.5922 16.9029 13.4654L18.5783 11.7899C18.3494 11.7251 18.1129 11.6907 17.875 11.6875C17.1459 11.6884 16.447 11.9784 15.9315 12.494C15.4159 13.0095 15.1259 13.7084 15.125 14.4375C15.1275 14.9271 15.2622 15.4069 15.5148 15.8263L11.6875 19.6522L12.6596 20.625L16.4869 16.7977Z" fill="#FFDB48"/>
    <path fill-rule="evenodd" clip-rule="evenodd" d="M17.875 2.75H15.125V1.375H13.75V2.75H8.25V1.375H6.875V2.75H4.125C3.76033 2.75 3.41059 2.89487 3.15273 3.15273C2.89487 3.41059 2.75 3.76033 2.75 4.125V17.875C2.75 18.2397 2.89487 18.5894 3.15273 18.8473C3.41059 19.1051 3.76033 19.25 4.125 19.25H9.625V17.875H4.125V4.125H6.875V5.5H8.25V4.125H13.75V5.5H15.125V4.125H17.875V9.625H19.25V4.125C19.25 3.76033 19.1051 3.41059 18.8473 3.15273C18.5894 2.89487 18.2397 2.75 17.875 2.75Z" fill="#FFDB48"/>
</svg>
