<svg width="22" height="22" viewBox="0 0 22 22" fill="none" xmlns="http://www.w3.org/2000/svg">
<path d="M1.375 15.125H20.625V16.5H1.375V15.125Z" fill="#FFDB48"/>
<path d="M1.375 17.875H20.625V19.25H1.375V17.875Z" fill="#FFDB48"/>
<path d="M16.5 6.875C16.2281 6.875 15.9622 6.95564 15.7361 7.10673C15.51 7.25782 15.3337 7.47256 15.2297 7.72381C15.1256 7.97506 15.0984 8.25153 15.1514 8.51825C15.2045 8.78497 15.3354 9.02997 15.5277 9.22227C15.72 9.41457 15.965 9.54553 16.2318 9.59858C16.4985 9.65163 16.7749 9.62441 17.0262 9.52033C17.2774 9.41626 17.4922 9.24003 17.6433 9.01391C17.7944 8.78779 17.875 8.52195 17.875 8.25C17.875 7.88533 17.7301 7.53559 17.4723 7.27773C17.2144 7.01987 16.8647 6.875 16.5 6.875Z" fill="#FFDB48"/>
<path d="M11 11C10.4561 11 9.92442 10.8387 9.47218 10.5365C9.01995 10.2344 8.66747 9.80488 8.45933 9.30238C8.25119 8.79988 8.19673 8.24695 8.30284 7.7135C8.40895 7.18006 8.67086 6.69005 9.05546 6.30546C9.44005 5.92086 9.93006 5.65895 10.4635 5.55284C10.997 5.44673 11.5499 5.50119 12.0524 5.70933C12.5549 5.91747 12.9844 6.26995 13.2865 6.72218C13.5887 7.17442 13.75 7.7061 13.75 8.25C13.7491 8.97907 13.4591 9.67801 12.9435 10.1935C12.428 10.7091 11.7291 10.9991 11 11ZM11 6.875C10.7281 6.875 10.4622 6.95564 10.2361 7.10673C10.01 7.25782 9.83374 7.47256 9.72967 7.72381C9.6256 7.97506 9.59837 8.25153 9.65142 8.51825C9.70448 8.78497 9.83543 9.02998 10.0277 9.22227C10.22 9.41457 10.465 9.54553 10.7318 9.59858C10.9985 9.65164 11.2749 9.62441 11.5262 9.52034C11.7774 9.41627 11.9922 9.24003 12.1433 9.01391C12.2944 8.78779 12.375 8.52195 12.375 8.25C12.3746 7.88544 12.2297 7.53592 11.9719 7.27813C11.7141 7.02035 11.3646 6.87537 11 6.875Z" fill="#FFDB48"/>
<path d="M5.5 6.875C5.22805 6.875 4.96221 6.95564 4.73609 7.10673C4.50997 7.25782 4.33374 7.47256 4.22967 7.72381C4.1256 7.97506 4.09837 8.25153 4.15142 8.51825C4.20448 8.78497 4.33543 9.02997 4.52773 9.22227C4.72003 9.41457 4.96503 9.54553 5.23175 9.59858C5.49848 9.65163 5.77494 9.62441 6.02619 9.52033C6.27744 9.41626 6.49218 9.24003 6.64327 9.01391C6.79436 8.78779 6.875 8.52195 6.875 8.25C6.875 7.88533 6.73013 7.53559 6.47227 7.27773C6.21441 7.01987 5.86467 6.875 5.5 6.875Z" fill="#FFDB48"/>
<path d="M19.25 13.75H2.75C2.38561 13.7491 2.0364 13.6039 1.77873 13.3463C1.52106 13.0886 1.37591 12.7394 1.375 12.375V4.125C1.37591 3.76061 1.52106 3.4114 1.77873 3.15373C2.0364 2.89606 2.38561 2.75091 2.75 2.75H19.25C19.6144 2.75091 19.9636 2.89606 20.2213 3.15373C20.4789 3.4114 20.6241 3.76061 20.625 4.125V12.375C20.6245 12.7395 20.4794 13.0889 20.2217 13.3467C19.9639 13.6044 19.6145 13.7495 19.25 13.75ZM19.25 4.125H2.75V12.375H19.25V4.125Z" fill="#FFDB48"/>
</svg>
