<svg width="70" height="42" viewBox="0 0 70 42" fill="none" xmlns="http://www.w3.org/2000/svg">
    <path d="M41.601 23.4996C41.6296 22.0522 41.601 20.5764 41.601 19.1006C41.601 18.0504 41.3443 16.2057 43.1133 16.2624C44.7682 16.3192 44.5399 18.0788 44.5399 19.1573C44.5399 20.6048 44.5114 22.0522 44.5399 23.528H46.1949V19.1857C46.1949 18.1356 45.9666 16.3192 47.7071 16.2908C49.4191 16.2624 49.1623 18.1072 49.1623 19.2141C49.1623 20.6331 49.1337 22.0806 49.1623 23.528H50.9028C50.9313 22.2225 50.9028 20.9169 50.9028 19.6114C50.9028 18.3343 51.0169 17.1706 50.4177 16.1773C49.5047 14.6731 46.737 14.1055 45.4245 16.3192C45.2247 16.1489 45.1106 15.7516 44.597 15.3826C43.3986 14.5596 41.6296 14.8718 39.8891 14.8718V23.528L41.601 23.4996ZM68.2223 19.8952C68.1367 20.7183 67.8799 21.3994 67.4519 21.7968C66.2535 22.9036 63.4287 22.6198 63.8282 18.5897C63.9709 17.1139 64.9125 15.7516 66.653 16.234C67.9655 16.603 68.3649 18.1924 68.2223 19.8952ZM62.0306 19.7817C62.2018 22.1657 63.8853 23.9537 66.4532 23.6983C69.1068 23.4429 70.1055 21.144 69.9913 18.76C69.706 13.2824 61.5741 13.3108 62.0306 19.7817ZM33.0126 16.1773C34.6961 15.8651 35.5235 17.2842 35.6091 18.8167C35.6947 20.2358 35.4379 22.0238 33.783 22.3076C32.0996 22.5914 31.2436 21.2575 31.158 19.6966C31.1009 17.9653 31.5004 16.4895 33.0126 16.1773ZM37.3782 19.6966C37.7491 15.1839 33.2409 13.4811 30.6729 15.8651C29.9881 16.4895 29.5031 17.5112 29.4175 18.7884C29.2178 21.4278 30.5873 23.4713 32.927 23.6983C34.4393 23.8686 35.6947 23.2442 36.4081 22.3928C36.6649 22.0806 36.836 21.7968 37.0072 21.3994C37.2355 20.8886 37.3496 20.3209 37.3782 19.6966ZM21.7136 16.3192C23.9677 16.1489 25.3087 16.8301 25.3943 19.0154C25.4799 21.2859 24.4242 22.1941 22.2272 22.1941H21.7136V16.3192ZM20.0302 23.4996C21.4568 23.5848 23.9392 23.6415 25.1661 22.932C26.3359 22.2792 27.1919 21.1156 27.1919 19.2425C27.1919 16.3476 25.2517 15.1272 22.8549 15.0137C22.1701 14.9853 20.7149 14.9285 20.0587 15.0137L20.0302 23.4996ZM55.411 16.3476H59.6624C59.6909 16.0638 59.7195 15.2407 59.6339 15.0137H54.2982C54.0985 15.0137 53.7275 14.9285 53.7275 15.1272V23.4996H59.7765L59.8051 22.1373H55.411V19.7817H59.4341V18.4762H55.411V16.3476Z" fill="#272727"/>
    <path d="M0.855988 0H41.5725V12.9986H39.8605V1.70287H1.71198V40.0459H39.8605V25.5147H41.5725V41.7487H0V0H0.855988Z" fill="#FFDB48"/>
</svg>
